<svg xmlns="http://www.w3.org/2000/svg" width="1080" height="1080" viewBox="0 0 1080 1080">
  <g>
    <polygon points="610.598 831.329 451.231 831.329 527.556 599.263 552.185 607.365 487.05 805.403 610.598 805.403 610.598 831.329" fill="#020202"/>
    <g>
      <path d="M717.381,682.735c-81.848,0-148.435-66.591-148.435-148.439s66.587-148.435,148.435-148.435a147.157,147.157,0,0,1,107.236,45.8L805.888,449.59a122.512,122.512,0,1,0,34,84.706V251.389h25.927V534.3C865.817,616.144,799.229,682.735,717.381,682.735Z" fill="#020202"/>
      <circle id="leyeball" cx="717.382" cy="538.498" r="35.826" fill="#020202"/>
    </g>
    <g>
      <circle id="reyeball" cx="362.357" cy="538.498" r="35.826" fill="#020202"/>
      <path d="M362.357,682.735c81.848,0,148.435-66.591,148.435-148.439S444.205,385.861,362.357,385.861a147.157,147.157,0,0,0-107.236,45.8L273.85,449.59a122.512,122.512,0,1,1-34,84.706V251.389H213.921V534.3C213.921,616.144,280.509,682.735,362.357,682.735Z" fill="#020202"/>
    </g>
  </g>
</svg>
